# xmcd
#
# Track frame offsets:
#	150
#	13901
#	32428
#	43496
#	60207
#	73813
#	87815
#	101415
#	119792
#	130710
#	147270
#	160878
#
# Disc length: 2329 seconds
#
# Revision: 1
# Processed by: cddbd v1.5.2PL0 Copyright (c) Steve Scherf et al.
# Submitted via: audiograbber 1.83.01
#
DISCID=a409170c
DTITLE=Waylon Jennings - Chartbuster Karaoke #2
DYEAR=2004
DGENRE=Country
TTITLE0=Mammas Don't Let Your Babies Grow Up to be Cowboys w Vocals
TTITLE1=I've Always Been Crazy w Vocals
TTITLE2=Good Ol' Boys w Vocals
TTITLE3=Lucille w Vocals
TTITLE4=Wrong w Vocals
TTITLE5=Lovin' Her Was Easier w Vocals
TTITLE6=Mammas Don't Let Your Babies Grow Up to be Cowboys
TTITLE7=I've Always Been Crazy
TTITLE8=Good Ol' Boys
TTITLE9=Lucille
TTITLE10=Wrong
TTITLE11=Lovin' Her Was Easier
EXTD=
EXTT0=
EXTT1=
EXTT2=
EXTT3=
EXTT4=
EXTT5=
EXTT6=
EXTT7=
EXTT8=
EXTT9=
EXTT10=
EXTT11=
PLAYORDER=
